<svg width="50" height="50" viewBox="0 0 50 50" fill="none" xmlns="http://www.w3.org/2000/svg">
<path d="M45.3125 25C45.3125 20.9826 44.1212 17.0554 41.8892 13.715C39.6573 10.3746 36.4849 7.77111 32.7733 6.23371C29.0616 4.6963 24.9775 4.29405 21.0372 5.07781C17.097 5.86157 13.4777 7.79615 10.6369 10.6369C7.79615 13.4777 5.86157 17.097 5.07781 21.0372C4.29405 24.9775 4.6963 29.0616 6.23371 32.7733C7.77111 36.4849 10.3746 39.6573 13.715 41.8892C17.0554 44.1212 20.9826 45.3125 25 45.3125C30.3856 45.3073 35.5492 43.1656 39.3574 39.3574C43.1656 35.5492 45.3073 30.3856 45.3125 25ZM26.5625 42.1094V29.6875H31.25C31.6644 29.6875 32.0618 29.5229 32.3549 29.2299C32.6479 28.9368 32.8125 28.5394 32.8125 28.125C32.8125 27.7106 32.6479 27.3132 32.3549 27.0202C32.0618 26.7271 31.6644 26.5625 31.25 26.5625H26.5625V21.875C26.5625 21.0462 26.8918 20.2514 27.4778 19.6653C28.0639 19.0792 28.8587 18.75 29.6875 18.75H32.8125C33.2269 18.75 33.6243 18.5854 33.9174 18.2924C34.2104 17.9993 34.375 17.6019 34.375 17.1875C34.375 16.7731 34.2104 16.3757 33.9174 16.0827C33.6243 15.7896 33.2269 15.625 32.8125 15.625H29.6875C28.0315 15.6302 26.4448 16.2903 25.2738 17.4613C24.1028 18.6323 23.4427 20.219 23.4375 21.875V26.5625H18.75C18.3356 26.5625 17.9382 26.7271 17.6452 27.0202C17.3521 27.3132 17.1875 27.7106 17.1875 28.125C17.1875 28.5394 17.3521 28.9368 17.6452 29.2299C17.9382 29.5229 18.3356 29.6875 18.75 29.6875H23.4375V42.1094C19.0328 41.7073 14.9527 39.6226 12.0458 36.289C9.1389 32.9554 7.62906 28.6294 7.83031 24.211C8.03157 19.7926 9.92842 15.6218 13.1263 12.5662C16.3242 9.51067 20.577 7.80555 25 7.80555C29.423 7.80555 33.6758 9.51067 36.8737 12.5662C40.0716 15.6218 41.9685 19.7926 42.1697 24.211C42.371 28.6294 40.8611 32.9554 37.9542 36.289C35.0473 39.6226 30.9672 41.7073 26.5625 42.1094Z" fill="#444444"/>
</svg>
