<svg width="50" height="50" viewBox="0 0 50 50" fill="none" xmlns="http://www.w3.org/2000/svg">
<path d="M25 15.625C23.1458 15.625 21.3332 16.1748 19.7915 17.205C18.2498 18.2351 17.0482 19.6993 16.3386 21.4123C15.6291 23.1254 15.4434 25.0104 15.8051 26.829C16.1669 28.6475 17.0598 30.318 18.3709 31.6291C19.682 32.9402 21.3525 33.8331 23.171 34.1949C24.9896 34.5566 26.8746 34.3709 28.5877 33.6614C30.3007 32.9518 31.7649 31.7502 32.795 30.2085C33.8252 28.6668 34.375 26.8542 34.375 25C34.375 22.5136 33.3873 20.129 31.6291 18.3709C29.871 16.6127 27.4864 15.625 25 15.625ZM25 31.25C23.7639 31.25 22.5555 30.8834 21.5277 30.1967C20.4999 29.5099 19.6988 28.5338 19.2258 27.3918C18.7527 26.2497 18.6289 24.9931 18.8701 23.7807C19.1112 22.5683 19.7065 21.4547 20.5806 20.5806C21.4547 19.7065 22.5683 19.1112 23.7807 18.8701C24.9931 18.6289 26.2497 18.7527 27.3918 19.2258C28.5338 19.6988 29.5099 20.4999 30.1967 21.5277C30.8834 22.5555 31.25 23.7639 31.25 25C31.2448 26.656 30.5847 28.2427 29.4137 29.4137C28.2427 30.5847 26.656 31.2448 25 31.25ZM33.5938 5.46875H16.4062C13.5054 5.46875 10.7234 6.62109 8.67227 8.67227C6.62109 10.7234 5.46875 13.5054 5.46875 16.4062V33.5938C5.46875 36.4946 6.62109 39.2766 8.67227 41.3277C10.7234 43.3789 13.5054 44.5312 16.4062 44.5312H33.5938C36.4946 44.5312 39.2766 43.3789 41.3277 41.3277C43.3789 39.2766 44.5312 36.4946 44.5312 33.5938V16.4062C44.5312 13.5054 43.3789 10.7234 41.3277 8.67227C39.2766 6.62109 36.4946 5.46875 33.5938 5.46875ZM41.4062 33.5938C41.4062 34.6197 41.2042 35.6356 40.8116 36.5835C40.4189 37.5313 39.8435 38.3926 39.118 39.118C38.3926 39.8435 37.5313 40.4189 36.5835 40.8116C35.6356 41.2042 34.6197 41.4062 33.5938 41.4062H16.4062C15.3803 41.4062 14.3644 41.2042 13.4165 40.8116C12.4687 40.4189 11.6074 39.8435 10.882 39.118C10.1565 38.3926 9.58106 37.5313 9.18844 36.5835C8.79583 35.6356 8.59375 34.6197 8.59375 33.5938V16.4062C8.59375 14.3342 9.41685 12.3471 10.882 10.882C12.3471 9.41685 14.3342 8.59375 16.4062 8.59375H33.5938C34.6197 8.59375 35.6356 8.79583 36.5835 9.18844C37.5313 9.58106 38.3926 10.1565 39.118 10.882C39.8435 11.6074 40.4189 12.4687 40.8116 13.4165C41.2042 14.3644 41.4062 15.3803 41.4062 16.4062V33.5938ZM37.5 14.8438C37.5 15.3073 37.3625 15.7604 37.105 16.1459C36.8475 16.5313 36.4814 16.8317 36.0532 17.0091C35.6249 17.1865 35.1537 17.2329 34.699 17.1425C34.2444 17.052 33.8267 16.8288 33.499 16.501C33.1712 16.1733 32.948 15.7556 32.8575 15.301C32.7671 14.8464 32.8135 14.3751 32.9909 13.9468C33.1683 13.5186 33.4687 13.1525 33.8541 12.895C34.2396 12.6375 34.6927 12.5 35.1562 12.5C35.7779 12.5 36.374 12.7469 36.8135 13.1865C37.2531 13.626 37.5 14.2221 37.5 14.8438Z" fill="#444444"/>
</svg>
