<svg width="45" height="45" viewBox="0 0 45 45" fill="none" xmlns="http://www.w3.org/2000/svg">
<path d="M43.4884 12.1117C43.3808 11.8558 43.1999 11.6374 42.9684 11.4841C42.7369 11.3308 42.4652 11.2495 42.1876 11.2504H36.8439C36.2026 10.1316 35.3124 9.17538 34.2422 8.45586C33.172 7.73634 31.9506 7.2728 30.6725 7.10114C29.3944 6.92948 28.094 7.05431 26.8719 7.46596C25.6498 7.87761 24.5389 8.56504 23.6251 9.47499C22.8251 10.2551 22.189 11.1872 21.7543 12.2165C21.3196 13.2459 21.0951 14.3518 21.0939 15.4691V16.5414C13.9396 14.6781 8.08604 8.91249 8.03331 8.84218C7.84943 8.66128 7.61935 8.53444 7.36822 8.47554C7.1171 8.41663 6.85461 8.42793 6.60948 8.5082C6.36512 8.58596 6.1463 8.72827 5.97613 8.9201C5.80596 9.11193 5.69075 9.34616 5.64268 9.59804C4.11338 18.0707 6.66221 23.7484 9.07041 27.018C10.2783 28.6712 11.7443 30.1194 13.4122 31.307C10.7228 34.348 6.57432 35.9301 6.53916 35.9477C6.34079 36.0212 6.16157 36.1386 6.01486 36.2911C5.86815 36.4435 5.75774 36.6271 5.69184 36.8282C5.62595 37.0293 5.60627 37.2426 5.63428 37.4523C5.66229 37.662 5.73727 37.8627 5.85362 38.0394C5.99424 38.2504 6.52159 38.9359 7.80479 39.5863C9.4044 40.3773 11.5138 40.7816 14.0626 40.7816C26.4552 40.7816 36.8263 31.2367 37.881 18.9496L43.1896 13.6586C43.3803 13.4553 43.5096 13.2021 43.5625 12.9283C43.6154 12.6546 43.5897 12.3715 43.4884 12.1117ZM35.5255 17.3324C35.2805 17.5754 35.1362 17.9018 35.1212 18.2465C34.4005 29.3031 25.1544 37.9691 14.0626 37.9691C12.1993 37.9691 10.8985 37.723 9.98448 37.4242C12.006 36.3344 14.8185 34.4359 16.6466 31.7113C16.7527 31.5464 16.8232 31.3612 16.8534 31.1674C16.8837 30.9737 16.8731 30.7757 16.8224 30.5863C16.7712 30.395 16.6807 30.2164 16.5566 30.0621C16.4325 29.9077 16.2775 29.7809 16.1017 29.6898C16.0841 29.6723 13.4825 28.3187 11.2501 25.2426C8.71885 21.7621 7.64659 17.5258 8.06846 12.6391C10.8458 14.9242 16.1544 18.6508 22.2716 19.6703C22.4736 19.7028 22.6802 19.6913 22.8774 19.6367C23.0745 19.5821 23.2576 19.4856 23.4142 19.3539C23.5672 19.22 23.6902 19.0552 23.775 18.8704C23.8598 18.6856 23.9046 18.485 23.9064 18.2816V15.4691C23.909 14.1789 24.3551 12.9288 25.1699 11.9284C25.9846 10.9279 27.1186 10.238 28.3816 9.97431C29.6446 9.71058 30.9599 9.88906 32.1069 10.4798C33.2539 11.0706 34.163 12.0378 34.6817 13.2191C34.7938 13.4704 34.9764 13.6839 35.2072 13.8336C35.4381 13.9833 35.7074 14.063 35.9825 14.0629H38.795L35.5255 17.3324Z" fill="#444444"/>
</svg>
