<svg width="50" height="50" viewBox="0 0 50 50" fill="none" xmlns="http://www.w3.org/2000/svg">
<path d="M29.1667 24.9997L21.875 29.1663V20.833L29.1667 24.9997Z" fill="#444444" stroke="#444444" stroke-width="3.125" stroke-linecap="round" stroke-linejoin="round"/>
<path d="M4.16602 26.4726V23.5247C4.16602 17.4934 4.16602 14.4768 6.05143 12.5372C7.93893 10.5955 10.9098 10.5122 16.8493 10.3434C19.6618 10.2643 22.5368 10.208 24.9993 10.208C27.4598 10.208 30.3348 10.2643 33.1493 10.3434C39.0889 10.5122 42.0598 10.5955 43.9452 12.5372C45.8327 14.4768 45.8327 17.4955 45.8327 23.5247V26.4726C45.8327 32.5059 45.8327 35.5205 43.9473 37.4622C42.0598 39.4018 39.091 39.4872 33.1493 39.6538C30.3368 39.7351 27.4618 39.7913 24.9993 39.7913C22.2822 39.7832 19.5652 39.7373 16.8493 39.6538C10.9098 39.4872 7.93893 39.4038 6.05143 37.4622C4.16602 35.5205 4.16602 32.5038 4.16602 26.4747V26.4726Z" stroke="#444444" stroke-width="3.125"/>
</svg>
